<?xml version="1.0" standalone="no"?>
<!DOCTYPE svg PUBLIC "-//W3C//DTD SVG 20010904//EN"
 "http://www.w3.org/TR/2001/REC-SVG-20010904/DTD/svg10.dtd">
<svg version="1.0" xmlns="http://www.w3.org/2000/svg"
 width="398.000000pt" height="398.000000pt" viewBox="0 0 398.000000 398.000000"
 preserveAspectRatio="xMidYMid meet">
<metadata>
Created by potrace 1.11, written by Peter Selinger 2001-2013
</metadata>
<g transform="translate(0.000000,398.000000) scale(0.100000,-0.100000)"
fill="#000000" stroke="none">
<path d="M1985 3847 c-10 -38 -1 -130 13 -135 9 -3 12 17 12 77 0 78 -13 107
-25 58z"/>
<path d="M1670 3770 c0 -14 60 -119 72 -126 24 -15 17 10 -18 71 -35 60 -54
79 -54 55z"/>
<path d="M2256 3716 c-39 -69 -41 -76 -27 -76 11 0 81 112 81 129 0 27 -21 6
-54 -53z"/>
<path d="M1879 3574 c-150 -52 -249 -216 -221 -366 14 -77 36 -120 94 -183 65
-71 78 -106 78 -210 0 -88 11 -126 50 -170 10 -11 21 -31 25 -45 4 -14 19 -37
33 -52 l26 -28 -90 0 c-57 0 -94 -4 -102 -12 -9 -9 -12 -123 -12 -450 0 -425
-1 -439 -20 -458 -27 -27 -75 -26 -94 2 -14 20 -16 80 -16 459 0 361 -2 439
-14 448 -9 8 -55 11 -137 9 l-124 -3 -3 -440 c-2 -422 -1 -443 19 -509 17 -58
30 -78 77 -125 74 -73 135 -96 252 -96 76 0 93 4 152 33 76 37 120 82 157 162
l26 55 3 453 c2 303 0 458 -7 466 -8 9 -4 19 14 36 13 12 27 37 31 54 3 17 19
51 35 75 25 39 29 54 29 120 1 118 14 157 71 218 73 77 104 149 104 243 0 128
-61 229 -177 290 -52 28 -75 34 -138 37 -50 2 -90 -2 -121 -13z m232 -36 c63
-26 141 -111 163 -174 39 -116 9 -241 -80 -328 -55 -55 -74 -89 -74 -132 0
-19 -5 -24 -24 -24 l-25 0 24 70 c24 69 24 70 4 84 -20 13 -19 16 21 131 22
64 40 121 40 126 0 5 -9 18 -20 29 -18 18 -33 20 -150 20 -117 0 -132 -2 -150
-20 -11 -11 -20 -26 -20 -33 0 -7 18 -65 39 -130 37 -110 38 -116 20 -122 -24
-8 -24 -9 1 -80 25 -73 25 -75 -3 -75 -19 0 -25 8 -35 45 -8 29 -29 64 -63
101 -74 81 -99 141 -99 234 1 227 221 369 431 278z m9 -233 c16 -19 8 -54 -34
-170 -33 -86 -34 -89 -45 -62 -6 15 -22 32 -36 39 -21 9 -28 8 -45 -7 -11 -10
-20 -24 -20 -31 0 -7 -4 -15 -9 -18 -7 -5 -23 36 -88 220 -2 6 3 19 12 28 23
23 246 24 265 1z m-95 -255 c9 -27 18 -36 39 -38 16 -2 26 -8 23 -15 -2 -7
-12 -36 -21 -65 l-18 -53 -61 3 -60 3 -18 50 c-24 68 -23 75 6 75 14 0 28 6
30 13 23 64 26 68 47 65 14 -2 25 -14 33 -38z m93 -222 l-3 -33 -132 -3 -133
-3 0 36 0 35 136 0 135 0 -3 -32z m2 -62 c0 -8 -4 -26 -10 -40 -9 -26 -10 -26
-129 -26 -115 0 -119 1 -125 23 -15 58 -18 57 129 57 111 0 135 -3 135 -14z
m-50 -101 c-22 -26 -83 -39 -123 -26 -19 7 -41 19 -47 27 -11 12 1 14 85 14
85 0 96 -2 85 -15z m-24 -74 c-24 -46 -53 -57 -84 -34 -14 10 -28 28 -33 39
-7 20 -5 21 34 17 23 -3 53 0 67 5 33 13 34 10 16 -27z"/>
<path d="M1430 3530 c0 -9 43 -31 117 -61 13 -5 25 -4 28 1 3 4 -19 20 -49 33
-75 34 -96 40 -96 27z"/>
<path d="M2490 3519 c-25 -12 -56 -25 -69 -30 -16 -6 -21 -13 -14 -20 11 -11
143 45 143 61 0 14 -9 12 -60 -11z"/>
<path d="M1390 3240 c0 -6 33 -10 80 -10 47 0 80 4 80 10 0 6 -33 10 -80 10
-47 0 -80 -4 -80 -10z"/>
<path d="M2430 3240 c0 -6 33 -10 80 -10 47 0 80 4 80 10 0 6 -33 10 -80 10
-47 0 -80 -4 -80 -10z"/>
<path d="M637 2513 c-4 -3 -7 -264 -7 -579 0 -512 2 -572 16 -578 20 -8 588
-8 608 0 13 5 16 25 16 120 l0 114 -180 0 -180 0 0 453 c0 339 -3 456 -12 465
-13 13 -249 18 -261 5z"/>
<path d="M2152 2508 c-17 -17 -17 -1129 0 -1146 14 -14 235 -17 255 -4 10 6
13 95 15 368 l3 359 64 -118 c35 -65 67 -115 71 -110 5 4 35 58 67 118 l58
110 3 -359 c2 -273 5 -362 15 -368 20 -13 241 -10 255 4 17 17 17 1129 0 1146
-13 13 -235 17 -254 4 -6 -4 -41 -67 -78 -139 -36 -73 -68 -133 -71 -133 -3 0
-35 60 -71 133 -37 72 -72 135 -78 139 -19 13 -241 9 -254 -4z"/>
<path d="M3082 2508 c-9 -9 -12 -142 -12 -569 0 -494 2 -559 16 -573 12 -13
39 -16 127 -16 62 0 118 4 125 8 10 7 12 130 10 583 l-3 574 -125 3 c-89 2
-129 -1 -138 -10z"/>
<path d="M845 1258 c-3 -7 -4 -267 -3 -578 l3 -565 318 -3 317 -2 0 115 0 115
-177 2 -178 3 -5 460 -5 460 -133 3 c-100 2 -134 -1 -137 -10z"/>
<path d="M1795 1258 c-18 -50 -243 -1134 -237 -1140 5 -5 67 -7 138 -6 l129 3
14 83 14 82 97 0 98 0 7 -67 c11 -107 5 -103 156 -103 95 0 131 3 134 12 2 7
-51 267 -118 578 l-122 565 -153 3 c-116 2 -154 0 -157 -10z m190 -569 c14
-90 25 -172 25 -181 0 -15 -9 -18 -60 -18 -33 0 -60 3 -60 8 0 4 14 84 30 177
16 94 30 174 30 179 0 5 2 7 5 4 3 -3 16 -79 30 -169z"/>
<path d="M2442 693 l3 -578 205 -3 c187 -2 211 -1 272 19 73 23 136 70 172
128 77 123 54 321 -48 420 l-35 34 33 31 c106 101 97 344 -17 441 -80 68 -125
79 -370 83 l-217 4 2 -579z m341 336 c48 -13 72 -60 64 -128 -7 -59 -41 -91
-98 -91 l-39 0 0 108 c0 60 3 112 7 115 9 9 22 9 66 -4z m28 -429 c31 -17 49
-64 49 -129 0 -49 -4 -65 -26 -90 -22 -27 -32 -31 -75 -31 l-49 0 0 123 c0 68
3 127 7 130 10 11 72 8 94 -3z"/>
</g>
</svg>
